<?xml version="1.0" encoding="UTF-8" standalone="no"?>
<svg
   xmlns:dc="http://purl.org/dc/elements/1.1/"
   xmlns:cc="http://creativecommons.org/ns#"
   xmlns:rdf="http://www.w3.org/1999/02/22-rdf-syntax-ns#"
   xmlns:svg="http://www.w3.org/2000/svg"
   xmlns="http://www.w3.org/2000/svg"
   xmlns:sodipodi="http://sodipodi.sourceforge.net/DTD/sodipodi-0.dtd"
   xmlns:inkscape="http://www.inkscape.org/namespaces/inkscape"
   id="svg2"
   preserveAspectRatio="xMidYMid meet"
   version="1.1"
   viewBox="0 0 435.316 96.671127"
   height="96.671127"
   width="435.31601"
   sodipodi:docname="readme-logo.svg"
   inkscape:version="0.92.1 r15371">
  <sodipodi:namedview
     pagecolor="#ffffff"
     bordercolor="#666666"
     borderopacity="1"
     objecttolerance="10"
     gridtolerance="10"
     guidetolerance="10"
     inkscape:pageopacity="0"
     inkscape:pageshadow="2"
     inkscape:window-width="1366"
     inkscape:window-height="715"
     id="namedview19"
     showgrid="false"
     fit-margin-top="0"
     fit-margin-left="0"
     fit-margin-right="0"
     fit-margin-bottom="0"
     inkscape:zoom="1.7123856"
     inkscape:cx="268.34122"
     inkscape:cy="38.358923"
     inkscape:window-x="-8"
     inkscape:window-y="-8"
     inkscape:window-maximized="1"
     inkscape:current-layer="svg2" />
  <metadata
     id="metadata38">
    <rdf:rdf>
      <cc:work
         rdf:about="">
        <dc:format>image/svg+xml</dc:format>
        <dc:type
           rdf:resource="http://purl.org/dc/dcmitype/StillImage" />
        <dc:title />
      </cc:work>
    </rdf:rdf>
    <rdf:RDF>
      <cc:Work
         rdf:about="">
        <dc:format>image/svg+xml</dc:format>
        <dc:type
           rdf:resource="http://purl.org/dc/dcmitype/StillImage" />
        <dc:title />
      </cc:Work>
    </rdf:RDF>
  </metadata>
  <defs
     id="defs36" />
  <g
     aria-label="CHESSE    R"
     style="font-style:normal;font-variant:normal;font-weight:normal;font-stretch:expanded;font-size:40px;line-height:1.25;font-family:'Berlin XBold';-inkscape-font-specification:'Berlin XBold Expanded';letter-spacing:0px;word-spacing:0px;fill:#ffffff;fill-opacity:1;stroke:#000000;stroke-opacity:1;opacity:1;"
     id="text25"
     transform="translate(42.664667)">
    <path
       d="m -42.664667,65.612067 q 0,-5.802666 1.621333,-11.264 1.621333,-5.461333 4.864,-9.642667 3.328,-4.266667 8.362667,-6.826667 5.034667,-2.56 11.946667,-2.56 7.2533337,0 12.8853338,3.242667 5.6320002,3.157333 10.4106672,8.789334 L -1.4486661,55.2014 q -3.8400001,-4.693333 -7.3386669,-6.314666 -3.413334,-1.621334 -6.912,-1.621334 -3.84,0 -6.741334,1.536 -2.816,1.536 -4.693333,4.096 -1.792,2.56 -2.730667,5.888001 -0.853333,3.328 -0.853333,6.912 0,3.584 0.853333,6.997333 0.938667,3.328 2.730667,5.888001 1.877333,2.56 4.693333,4.181333 2.901334,1.536 6.741334,1.536 3.584,0 6.9973333,-1.706667 3.4986668,-1.706666 7.2533336,-6.485333 l 8.8746671,7.850667 q -4.608,5.546667 -10.3253338,8.874667 -5.7173335,3.328 -12.9706672,3.328 -6.912,0 -11.946667,-2.56 -5.034667,-2.645334 -8.362667,-6.912001 -3.242667,-4.266666 -4.864,-9.728 -1.621333,-5.546667 -1.621333,-11.349334 z"
       style="font-size:85.33333588px;stroke:#000000;stroke-opacity:1"
       id="path27"
       inkscape:connector-curvature="0" />
    <path
       d="M 44.835334,95.820068 V 70.902734 H 24.782 V 95.820068 H 12.835333 V 36.086733 H 24.782 V 58.956067 H 44.835334 V 36.086733 h 11.946667 v 59.733335 z"
       style="font-size:85.33333588px;stroke:#000000;stroke-opacity:1"
       id="path29"
       inkscape:connector-curvature="0" />
    <path
       d="M 64.168669,95.820068 V 36.086733 H 102.22734 V 48.0334 H 76.115336 V 58.956067 H 99.92334 V 70.902734 H 76.115336 v 12.970667 h 26.368004 v 11.946667 z"
       style="font-size:85.33333588px;stroke:#000000;stroke-opacity:1"
       id="path31"
       inkscape:connector-curvature="0" />
    <path
       d="m 140.73667,52.044067 q -1.96267,-2.474667 -4.52267,-3.328 -2.56,-0.938667 -5.80267,-0.938667 -3.92533,0 -6.144,1.365334 -2.21866,1.28 -2.21866,3.242666 0,1.109334 1.10933,2.133334 1.10933,0.938666 2.73067,1.792 1.70666,0.853333 3.66933,1.706667 2.048,0.768 3.92533,1.450666 h -0.0853 q 2.47467,0.853334 5.632,2.304 3.15733,1.365334 5.888,3.584 2.816,2.133334 4.69333,5.290667 1.96267,3.072 1.96267,7.338667 0,4.437334 -1.70667,7.850667 -1.62133,3.413333 -4.608,5.717334 -2.90133,2.304 -6.912,3.498666 -3.92533,1.194667 -8.53333,1.194667 -6.4,0 -12.288,-2.986667 -5.80267,-3.072 -11.69067,-9.642667 l 9.81334,-8.021333 q 3.15733,4.437333 6.656,6.485333 3.584,2.048 7.59466,2.048 4.26667,0 6.99734,-1.365333 2.73066,-1.450667 2.73066,-3.669333 0,-1.621334 -1.19466,-2.816001 -1.10934,-1.28 -2.90134,-2.304 -1.70666,-1.024 -3.92533,-1.792 -2.13333,-0.768 -4.18133,-1.450666 l -1.7067,-0.682667 q -2.90133,-1.024 -5.71733,-2.218667 -2.816,-1.194667 -5.12,-3.072 -2.21867,-1.962667 -3.66934,-4.778667 -1.36533,-2.816 -1.36533,-6.997333 0,-3.328 1.10933,-6.4 1.19467,-3.157334 3.66934,-5.461334 2.47466,-2.389333 6.31466,-3.84 3.84,-1.450667 9.30134,-1.450667 6.144,0 11.60533,2.56 5.54667,2.56 11.09333,9.216001 l -9.728,6.741333 z"
       style="font-size:85.33333588px;stroke:#000000;stroke-opacity:1"
       id="path33"
       inkscape:connector-curvature="0" />
    <path
       d="m 191.23667,52.044067 q -1.96267,-2.474667 -4.52267,-3.328 -2.56,-0.938667 -5.80267,-0.938667 -3.92533,0 -6.144,1.365334 -2.21866,1.28 -2.21866,3.242666 0,1.109334 1.10933,2.133334 1.10933,0.938666 2.73067,1.792 1.70666,0.853333 3.66933,1.706667 2.048,0.768 3.92533,1.450666 h -0.0853 q 2.47467,0.853334 5.632,2.304 3.15733,1.365334 5.888,3.584 2.816,2.133334 4.69333,5.290667 1.96267,3.072 1.96267,7.338667 0,4.437334 -1.70667,7.850667 -1.62133,3.413333 -4.608,5.717334 -2.90133,2.304 -6.912,3.498666 -3.92533,1.194667 -8.53333,1.194667 -6.4,0 -12.288,-2.986667 -5.80267,-3.072 -11.69067,-9.642667 l 9.81334,-8.021333 q 3.15733,4.437333 6.656,6.485333 3.584,2.048 7.59466,2.048 4.26667,0 6.99734,-1.365333 2.73066,-1.450667 2.73066,-3.669333 0,-1.621334 -1.19466,-2.816001 -1.10934,-1.28 -2.90134,-2.304 -1.70666,-1.024 -3.92533,-1.792 -2.13333,-0.768 -4.18133,-1.450666 l -1.7067,-0.682667 q -2.90133,-1.024 -5.71733,-2.218667 -2.816,-1.194667 -5.12,-3.072 -2.21867,-1.962667 -3.66934,-4.778667 -1.36533,-2.816 -1.36533,-6.997333 0,-3.328 1.10933,-6.4 1.19467,-3.157334 3.66934,-5.461334 2.47466,-2.389333 6.31466,-3.84 3.84,-1.450667 9.30134,-1.450667 6.144,0 11.60533,2.56 5.54667,2.56 11.09333,9.216001 l -9.728,6.741333 z"
       style="font-size:85.33333588px;stroke:#000000;stroke-opacity:1"
       id="path35"
       inkscape:connector-curvature="0" />
    <path
       d="M 206.83533,95.820068 V 36.086733 H 244.894 V 48.0334 h -26.112 v 10.922667 h 23.808 v 11.946667 h -23.808 v 12.970667 h 26.368 v 11.946667 z"
       style="font-size:85.33333588px;stroke:#000000;stroke-opacity:1"
       id="path37"
       inkscape:connector-curvature="0" />
    <path
       d="m 366.53934,72.950734 h -7.424 V 95.820068 H 347.16868 V 36.086733 h 23.12533 q 3.75467,0 7.08267,1.450667 3.328,1.450667 5.80266,4.010667 2.56,2.474666 4.01067,5.888 1.45067,3.328 1.45067,7.168 0,5.12 -2.56,9.386667 -2.56,4.181334 -6.656,6.570667 l 13.22666,25.258667 h -13.568 z m -7.424,-11.946667 h 11.17867 q 2.64533,0 4.52267,-1.792 1.87733,-1.877333 1.87733,-4.608 0,-2.730667 -1.87733,-4.608 -1.87734,-1.877333 -4.52267,-1.962667 h -11.17867 z"
       style="font-size:85.33333588px;stroke:#000000;stroke-opacity:1"
       id="path39"
       inkscape:connector-curvature="0" />
  </g>
  <g
     transform="matrix(0.78700511,0,0,0.78700511,281.55445,-0.16906851)"
     id="g6"
     style="fill:#de4f4f;fill-rule:evenodd;stroke:#000000;stroke-opacity:1;opacity:1">
    <path
       d="M 0.21500326,0.21482518 107.50163,113.85734 c 0,0 3.65506,2.5779 6.4501,-0.42965 2.79504,-3.00755 0.64501,-6.0151 0.64501,-6.0151 z"
       id="path8"
       style="fill:#de4f4f;stroke:#000000;stroke-opacity:1"
       inkscape:connector-curvature="0" />
    <path
       d="m 34.185518,10.956084 81.701242,88.078322 c 0,0 3.65505,2.577904 6.4501,-0.429651 2.79504,-3.007552 0.64501,-6.015105 0.64501,-6.015105 z"
       id="path10"
       style="fill:#de4f4f;stroke:#000000;stroke-opacity:1"
       inkscape:connector-curvature="0" />
    <path
       d="M 10.320157,33.942378 92.021396,122.0207 c 0,0 3.655055,2.5779 6.450098,-0.42965 2.795046,-3.00755 0.64501,-6.01511 0.64501,-6.01511 z"
       id="path12"
       style="fill:#de4f4f;stroke:#000000;stroke-opacity:1"
       inkscape:connector-curvature="0" />
    <path
       d="m 62.903178,20.193566 57.079782,61.535065 c 0,0 2.55356,1.801026 4.50629,-0.300171 1.95273,-2.101197 0.45063,-4.202395 0.45063,-4.202395 z"
       id="path14"
       style="fill:#de4f4f;stroke:#000000;stroke-opacity:1"
       inkscape:connector-curvature="0" />
    <path
       d="m 18.182499,60.580699 57.079778,61.535061 c 0,0 2.553569,1.80103 4.506298,-0.30017 1.95273,-2.1012 0.45063,-4.20239 0.45063,-4.20239 z"
       id="path16"
       style="fill:#de4f4f;stroke:#000000;stroke-opacity:1"
       inkscape:connector-curvature="0" />
    <path
       d="m 92.236399,33.512727 25.870481,27.974471 c 0,0 1.26316,0.843915 2.22911,-0.140653 0.96596,-0.984567 0.22292,-1.969135 0.22292,-1.969135 z"
       id="path18"
       style="fill:#de4f4f;stroke:#000000;stroke-opacity:1"
       inkscape:connector-curvature="0" />
    <path
       d="m 32.465493,88.937622 25.870476,27.974468 c 0,0 1.263168,0.84392 2.22912,-0.14065 0.965952,-0.98457 0.222912,-1.96913 0.222912,-1.96913 z"
       id="path20"
       style="fill:#de4f4f;stroke:#000000;stroke-opacity:1"
       inkscape:connector-curvature="0" />
  </g>
</svg>
