<?xml version="1.0" encoding="UTF-8" standalone="no"?>
<!-- Generator: Adobe Illustrator 18.0.0, SVG Export Plug-In . SVG Version: 6.00 Build 0)  -->

<svg
   xmlns:dc="http://purl.org/dc/elements/1.1/"
   xmlns:cc="http://creativecommons.org/ns#"
   xmlns:rdf="http://www.w3.org/1999/02/22-rdf-syntax-ns#"
   xmlns:svg="http://www.w3.org/2000/svg"
   xmlns="http://www.w3.org/2000/svg"
   xmlns:sodipodi="http://sodipodi.sourceforge.net/DTD/sodipodi-0.dtd"
   xmlns:inkscape="http://www.inkscape.org/namespaces/inkscape"
   version="1.1"
   id="Capa_1"
   x="0px"
   y="0px"
   viewBox="0 0 58 58"
   style="enable-background:new 0 0 58 58;"
   xml:space="preserve"
   sodipodi:docname="king-black.svg"
   inkscape:version="0.92.1 r15371"><metadata
   id="metadata53"><rdf:RDF><cc:Work
       rdf:about=""><dc:format>image/svg+xml</dc:format><dc:type
         rdf:resource="http://purl.org/dc/dcmitype/StillImage" /></cc:Work></rdf:RDF></metadata><defs
   id="defs51"><filter
     style="color-interpolation-filters:sRGB;"
     inkscape:label="Invert"
     id="filter59"><feColorMatrix
       type="hueRotate"
       values="180"
       result="color1"
       id="feColorMatrix55" /><feColorMatrix
       values="-1 0 0 0 1 0 -1 0 0 1 0 0 -1 0 1 -0.21 -0.72 -0.07 2 0 "
       result="color2"
       id="feColorMatrix57" /></filter></defs><sodipodi:namedview
   pagecolor="#ffffff"
   bordercolor="#666666"
   borderopacity="1"
   objecttolerance="10"
   gridtolerance="10"
   guidetolerance="10"
   inkscape:pageopacity="0"
   inkscape:pageshadow="2"
   inkscape:window-width="640"
   inkscape:window-height="480"
   id="namedview49"
   showgrid="false"
   inkscape:zoom="4.0689655"
   inkscape:cx="24.699153"
   inkscape:cy="29"
   inkscape:window-x="0"
   inkscape:window-y="0"
   inkscape:window-maximized="0"
   inkscape:current-layer="Capa_1" />
<g
   id="g16"
   style="filter:url(#filter59)">
	<path
   style="fill:#BE8400;"
   d="M33.628,3H32V1.372C32,0.614,31.386,0,30.628,0h-3.255C26.614,0,26,0.614,26,1.372V3h-1.628   C23.614,3,23,3.614,23,4.372v2.255C23,7.386,23.614,8,24.372,8H26v4h6V8h1.628C34.386,8,35,7.386,35,6.628V4.372   C35,3.614,34.386,3,33.628,3z"
   id="path2" />
	<path
   style="fill:#E5B55B;"
   d="M35,21H23l-1.597-7.187C21.196,12.882,21.904,12,22.857,12h12.286c0.953,0,1.661,0.882,1.454,1.813   L35,21z"
   id="path4" />
	<polygon
   style="fill:#E5B55B;"
   points="38.001,47 20,47 22,26 36.001,26  "
   id="polygon6" />
	<path
   style="fill:#BE8400;"
   d="M39,26H19c-1.381,0-2.5-1.119-2.5-2.5v0c0-1.381,1.119-2.5,2.5-2.5h20c1.381,0,2.5,1.119,2.5,2.5v0   C41.5,24.881,40.381,26,39,26z"
   id="path8" />
	<rect
   x="14"
   y="53"
   style="fill:#BA8100;"
   width="30"
   height="5"
   id="rect10" />
	<path
   style="fill:#D9A72E;"
   d="M42,53H16v-2.843C16,48.413,17.413,47,19.157,47h19.686C40.587,47,42,48.413,42,50.157V53z"
   id="path12" />
	<polygon
   style="fill:#BE8400;"
   points="20.476,42 37.524,42 37.048,37 20.952,37  "
   id="polygon14" />
</g>
<g
   id="g18">
</g>
<g
   id="g20">
</g>
<g
   id="g22">
</g>
<g
   id="g24">
</g>
<g
   id="g26">
</g>
<g
   id="g28">
</g>
<g
   id="g30">
</g>
<g
   id="g32">
</g>
<g
   id="g34">
</g>
<g
   id="g36">
</g>
<g
   id="g38">
</g>
<g
   id="g40">
</g>
<g
   id="g42">
</g>
<g
   id="g44">
</g>
<g
   id="g46">
</g>
</svg>