<?xml version="1.0" encoding="UTF-8" standalone="no"?>
<!-- Generator: Adobe Illustrator 18.0.0, SVG Export Plug-In . SVG Version: 6.00 Build 0)  -->

<svg
   xmlns:dc="http://purl.org/dc/elements/1.1/"
   xmlns:cc="http://creativecommons.org/ns#"
   xmlns:rdf="http://www.w3.org/1999/02/22-rdf-syntax-ns#"
   xmlns:svg="http://www.w3.org/2000/svg"
   xmlns="http://www.w3.org/2000/svg"
   xmlns:sodipodi="http://sodipodi.sourceforge.net/DTD/sodipodi-0.dtd"
   xmlns:inkscape="http://www.inkscape.org/namespaces/inkscape"
   version="1.1"
   id="Capa_1"
   x="0px"
   y="0px"
   viewBox="0 0 58 58"
   style="enable-background:new 0 0 58 58;"
   xml:space="preserve"
   sodipodi:docname="pawn-black.svg"
   inkscape:version="0.92.1 r15371"><metadata
   id="metadata55"><rdf:RDF><cc:Work
       rdf:about=""><dc:format>image/svg+xml</dc:format><dc:type
         rdf:resource="http://purl.org/dc/dcmitype/StillImage" /></cc:Work></rdf:RDF></metadata><defs
   id="defs53"><filter
     style="color-interpolation-filters:sRGB;"
     inkscape:label="Invert"
     id="filter61"><feColorMatrix
       type="hueRotate"
       values="180"
       result="color1"
       id="feColorMatrix57" /><feColorMatrix
       values="-1 0 0 0 1 0 -1 0 0 1 0 0 -1 0 1 -0.21 -0.72 -0.07 2 0 "
       result="color2"
       id="feColorMatrix59" /></filter></defs><sodipodi:namedview
   pagecolor="#ffffff"
   bordercolor="#666666"
   borderopacity="1"
   objecttolerance="10"
   gridtolerance="10"
   guidetolerance="10"
   inkscape:pageopacity="0"
   inkscape:pageshadow="2"
   inkscape:window-width="640"
   inkscape:window-height="480"
   id="namedview51"
   showgrid="false"
   inkscape:zoom="4.0689655"
   inkscape:cx="24.699153"
   inkscape:cy="29"
   inkscape:window-x="0"
   inkscape:window-y="0"
   inkscape:window-maximized="0"
   inkscape:current-layer="Capa_1" />
<g
   id="g18"
   style="filter:url(#filter61)">
	<circle
   style="fill:#E5B55B;"
   cx="29"
   cy="9"
   r="9"
   id="circle2" />
	<polygon
   style="fill:#E5B55B;"
   points="38.001,47 20,47 22,29 36.001,29  "
   id="polygon4" />
	<rect
   x="14"
   y="53"
   style="fill:#BA8100;"
   width="30"
   height="5"
   id="rect6" />
	<path
   style="fill:#D9A72E;"
   d="M42,53H16v-2.843C16,48.413,17.413,47,19.157,47h19.686C40.587,47,42,48.413,42,50.157V53z"
   id="path8" />
	<path
   style="fill:#F9C97D;"
   d="M25,9c-0.552,0-1-0.447-1-1c0-2.206,1.794-4,4-4c0.552,0,1,0.447,1,1s-0.448,1-1,1   c-1.103,0-2,0.897-2,2C26,8.553,25.552,9,25,9z"
   id="path10" />
	<polygon
   style="fill:#BE8400;"
   points="20.556,42 37.445,42 36.89,37 21.111,37  "
   id="polygon12" />
	<path
   style="fill:#BE8400;"
   d="M38.5,29h-19c-1.925,0-3.5-1.575-3.5-3.5v0c0-1.925,1.575-3.5,3.5-3.5h19c1.925,0,3.5,1.575,3.5,3.5   v0C42,27.425,40.425,29,38.5,29z"
   id="path14" />
	<path
   style="fill:#D9A72E;"
   d="M29,18c-1.439,0-2.794-0.346-4-0.947V22h8v-4.947C31.794,17.654,30.439,18,29,18z"
   id="path16" />
</g>
<g
   id="g20">
</g>
<g
   id="g22">
</g>
<g
   id="g24">
</g>
<g
   id="g26">
</g>
<g
   id="g28">
</g>
<g
   id="g30">
</g>
<g
   id="g32">
</g>
<g
   id="g34">
</g>
<g
   id="g36">
</g>
<g
   id="g38">
</g>
<g
   id="g40">
</g>
<g
   id="g42">
</g>
<g
   id="g44">
</g>
<g
   id="g46">
</g>
<g
   id="g48">
</g>
</svg>