<?xml version="1.0" encoding="UTF-8" standalone="no"?>
<!-- Generator: Adobe Illustrator 18.0.0, SVG Export Plug-In . SVG Version: 6.00 Build 0)  -->

<svg
   xmlns:dc="http://purl.org/dc/elements/1.1/"
   xmlns:cc="http://creativecommons.org/ns#"
   xmlns:rdf="http://www.w3.org/1999/02/22-rdf-syntax-ns#"
   xmlns:svg="http://www.w3.org/2000/svg"
   xmlns="http://www.w3.org/2000/svg"
   xmlns:sodipodi="http://sodipodi.sourceforge.net/DTD/sodipodi-0.dtd"
   xmlns:inkscape="http://www.inkscape.org/namespaces/inkscape"
   version="1.1"
   id="Capa_1"
   x="0px"
   y="0px"
   viewBox="0 0 57 57"
   style="enable-background:new 0 0 57 57;"
   xml:space="preserve"
   sodipodi:docname="queen-black.svg"
   inkscape:version="0.92.1 r15371"><metadata
   id="metadata53"><rdf:RDF><cc:Work
       rdf:about=""><dc:format>image/svg+xml</dc:format><dc:type
         rdf:resource="http://purl.org/dc/dcmitype/StillImage" /></cc:Work></rdf:RDF></metadata><defs
   id="defs51"><filter
     style="color-interpolation-filters:sRGB;"
     inkscape:label="Invert"
     id="filter59"><feColorMatrix
       type="hueRotate"
       values="180"
       result="color1"
       id="feColorMatrix55" /><feColorMatrix
       values="-1 0 0 0 1 0 -1 0 0 1 0 0 -1 0 1 -0.21 -0.72 -0.07 2 0 "
       result="color2"
       id="feColorMatrix57" /></filter></defs><sodipodi:namedview
   pagecolor="#ffffff"
   bordercolor="#666666"
   borderopacity="1"
   objecttolerance="10"
   gridtolerance="10"
   guidetolerance="10"
   inkscape:pageopacity="0"
   inkscape:pageshadow="2"
   inkscape:window-width="640"
   inkscape:window-height="480"
   id="namedview49"
   showgrid="false"
   inkscape:zoom="4.1403509"
   inkscape:cx="24.273305"
   inkscape:cy="28.5"
   inkscape:window-x="0"
   inkscape:window-y="0"
   inkscape:window-maximized="0"
   inkscape:current-layer="Capa_1" />
<g
   id="g16"
   style="filter:url(#filter59)">
	<circle
   style="fill:#F9C97D;"
   cx="28.5"
   cy="4"
   r="4"
   id="circle2" />
	<polygon
   style="fill:#E5B55B;"
   points="37.501,46 19.5,46 21.5,24 35.501,24  "
   id="polygon4" />
	<path
   style="fill:#BE8400;"
   d="M38.5,24h-20c-1.381,0-2.5-1.119-2.5-2.5v0c0-1.381,1.119-2.5,2.5-2.5h20c1.381,0,2.5,1.119,2.5,2.5   v0C41,22.881,39.881,24,38.5,24z"
   id="path6" />
	<rect
   x="13.5"
   y="52"
   style="fill:#BA8100;"
   width="30"
   height="5"
   id="rect8" />
	<path
   style="fill:#D9A72E;"
   d="M41.5,52h-26v-2.843c0-1.743,1.413-3.157,3.157-3.157h19.686c1.743,0,3.157,1.413,3.157,3.157V52z"
   id="path10" />
	<polygon
   style="fill:#E5B55B;"
   points="34.505,12.99 31.5,10 31.5,10 28.5,15 25.5,10 25.5,10 22.495,12.99 18.5,11.995 21.5,19    35.5,19 38.5,11.995  "
   id="polygon12" />
	<polygon
   style="fill:#BE8400;"
   points="19.955,41 37.046,41 36.591,36 20.409,36  "
   id="polygon14" />
</g>
<g
   id="g18">
</g>
<g
   id="g20">
</g>
<g
   id="g22">
</g>
<g
   id="g24">
</g>
<g
   id="g26">
</g>
<g
   id="g28">
</g>
<g
   id="g30">
</g>
<g
   id="g32">
</g>
<g
   id="g34">
</g>
<g
   id="g36">
</g>
<g
   id="g38">
</g>
<g
   id="g40">
</g>
<g
   id="g42">
</g>
<g
   id="g44">
</g>
<g
   id="g46">
</g>
</svg>